<?xml version="1.0" standalone="no"?>
<!DOCTYPE svg PUBLIC "-//W3C//DTD SVG 20010904//EN"
 "http://www.w3.org/TR/2001/REC-SVG-20010904/DTD/svg10.dtd">
<svg version="1.0" xmlns="http://www.w3.org/2000/svg"
 width="260.000000pt" height="260.000000pt" viewBox="0 0 260.000000 260.000000"
 preserveAspectRatio="xMidYMid meet">
<metadata>
Created by potrace 1.11, written by Peter Selinger 2001-2013
</metadata>
<g transform="translate(0.000000,260.000000) scale(0.100000,-0.100000)"
fill="#000000" stroke="none">
<path d="M1115 2590 c-282 -45 -525 -167 -727 -366 -179 -176 -284 -361 -351
-614 -28 -107 -30 -128 -31 -295 -1 -139 3 -199 17 -265 128 -596 617 -1018
1213 -1047 365 -18 702 109 965 364 195 189 318 410 375 673 23 107 26 389 5
495 -102 518 -488 917 -1001 1036 -98 23 -368 34 -465 19z m465 -505 c235 -53
423 -198 520 -400 57 -118 71 -181 77 -340 4 -120 2 -153 -16 -229 -30 -124
-88 -230 -179 -328 -119 -125 -223 -192 -378 -241 -120 -38 -238 -47 -619 -47
l-345 0 0 110 0 110 100 0 100 0 0 585 0 585 -100 0 -100 0 0 111 0 111 433
-5 c361 -4 444 -7 507 -22z"/>
<path d="M1070 1305 l0 -585 183 0 c130 0 200 4 242 15 217 55 388 224 441
435 24 95 15 261 -19 354 -64 174 -210 304 -392 351 -43 11 -113 15 -257 15
l-198 0 0 -585z"/>
</g>
</svg>
